<?xml version="1.0" encoding="UTF-8"?>
<!DOCTYPE svg PUBLIC "-//W3C//DTD SVG 1.1//EN" "http://www.w3.org/Graphics/SVG/1.1/DTD/svg11.dtd">
<svg xmlns="http://www.w3.org/2000/svg" version="1.1" width="512px" height="512px" style="shape-rendering:geometricPrecision; text-rendering:geometricPrecision; image-rendering:optimizeQuality; fill-rule:evenodd; clip-rule:evenodd" xmlns:xlink="http://www.w3.org/1999/xlink">
<g><path style="opacity:0.982" fill="#000000" d="M 153.5,20.5 C 249.834,20.3333 346.167,20.5 442.5,21C 469,26.1667 484.833,42 490,68.5C 490.988,166.535 490.655,264.535 489,362.5C 481.914,386.969 465.747,401.136 440.5,405C 428.838,405.5 417.171,405.667 405.5,405.5C 405.667,417.171 405.5,428.838 405,440.5C 400.734,468.1 384.9,484.6 357.5,490C 261.167,490.667 164.833,490.667 68.5,490C 42,484.833 26.1667,469 21,442.5C 20.3333,346.167 20.3333,249.833 21,153.5C 26.4004,126.1 42.9004,110.266 70.5,106C 82.1619,105.5 93.8286,105.333 105.5,105.5C 105.333,93.8286 105.5,82.1619 106,70.5C 110.449,42.8871 126.282,26.2204 153.5,20.5 Z M 162.5,63.5 C 253.167,63.3333 343.834,63.5 434.5,64C 442,64.8333 446.167,69 447,76.5C 447.667,167.167 447.667,257.833 447,348.5C 446.441,354.717 443.274,358.884 437.5,361C 426.839,361.5 416.172,361.667 405.5,361.5C 405.667,292.833 405.5,224.166 405,155.5C 401.305,131.804 388.139,115.971 365.5,108C 362.211,107.118 358.877,106.452 355.5,106C 286.834,105.5 218.167,105.333 149.5,105.5C 149.333,94.8281 149.5,84.1615 150,73.5C 152.278,67.7148 156.444,64.3815 162.5,63.5 Z M 72.5,149.5 C 165.834,149.333 259.167,149.5 352.5,150C 356.667,151.5 359.5,154.333 361,158.5C 361.667,251.5 361.667,344.5 361,437.5C 358.884,443.274 354.717,446.441 348.5,447C 257.833,447.667 167.167,447.667 76.5,447C 69,446.167 64.8333,442 64,434.5C 63.3333,343.833 63.3333,253.167 64,162.5C 64.6826,156.67 67.516,152.337 72.5,149.5 Z"/></g>
<g><path style="opacity:0.985" fill="#000000" d="M 205.5,191.5 C 218.189,188.875 227.356,193.209 233,204.5C 234.47,228.435 234.97,252.435 234.5,276.5C 257.502,276.333 280.502,276.5 303.5,277C 317.105,281.7 322.272,291.2 319,305.5C 316.406,312.428 311.573,316.928 304.5,319C 281.169,319.5 257.836,319.667 234.5,319.5C 234.667,342.836 234.5,366.169 234,389.5C 230.607,399.79 223.441,405.124 212.5,405.5C 202.551,404.774 195.717,399.774 192,390.5C 191.5,366.836 191.333,343.169 191.5,319.5C 167.831,319.667 144.164,319.5 120.5,319C 107.947,313.349 103.447,303.849 107,290.5C 109.594,283.572 114.427,279.072 121.5,277C 144.831,276.5 168.164,276.333 191.5,276.5C 191.333,252.831 191.5,229.164 192,205.5C 194.687,198.981 199.187,194.314 205.5,191.5 Z"/></g>
</svg>
